<svg width="190" height="190" viewBox="0 0 190 190" fill="none" xmlns="http://www.w3.org/2000/svg">
<g clip-path="url(#clip0_363:608)">
<path d="M83.1957 78.436L83.2218 78.4331L83.2211 78.4259C83.3264 78.4141 83.4313 78.4067 83.5355 78.4031C88.0276 77.9885 92.2896 79.4135 95.5788 82.0774C98.9191 84.783 101.243 88.7714 101.765 93.4061L101.768 93.4337L101.775 93.433C101.786 93.5375 101.794 93.6416 101.797 93.745C102.218 98.2722 100.818 102.575 98.1922 105.898C95.4998 109.306 91.5242 111.673 86.904 112.193C81.9056 112.755 77.0065 112.387 72.4195 111.237C67.6394 110.038 63.193 107.989 59.319 105.258C55.1326 102.307 51.6097 98.582 49.009 94.2645C46.4917 90.0859 44.8353 85.3474 44.2719 80.212C43.7117 75.1087 44.3036 70.1282 45.8562 65.4836C47.4547 60.7019 50.0811 56.2902 53.5227 52.484C56.715 48.9536 60.6064 45.966 65.0003 43.7391C69.2284 41.5964 73.9307 40.1469 78.932 39.5843C86.89 38.6892 94.6737 39.2621 101.948 41.0686C109.533 42.9521 116.557 46.1723 122.646 50.4644C129.049 54.9776 134.435 60.6589 138.41 67.2299C142.248 73.5741 144.77 80.7551 145.623 88.5242C146.472 96.2614 145.565 103.817 143.193 110.868C140.743 118.154 136.722 124.889 131.457 130.711C126.438 136.262 120.29 140.965 113.324 144.476C106.613 147.858 99.136 150.149 91.1679 151.045C80.2411 152.274 69.568 151.497 59.6051 149.033C49.2301 146.468 39.6326 142.076 31.3241 136.22C22.7217 130.156 15.4776 122.519 10.1212 113.682C4.94985 105.151 1.55628 95.5261 0.41718 85.1458C-0.720743 74.7763 0.501195 64.645 3.692 55.1861C6.99414 45.397 12.4083 36.3407 19.498 28.5002C26.3349 20.9388 34.744 14.5223 44.304 9.71607C53.4977 5.09411 63.7449 1.96114 74.6682 0.732347C88.5639 -0.830909 102.127 0.150964 114.778 3.27193C127.943 6.51971 140.114 12.0825 150.641 19.5031C161.461 27.1303 170.569 36.7233 177.298 47.8124C183.79 58.5115 188.05 70.5785 189.478 83.5905C190.905 96.592 189.367 109.299 185.358 121.166C181.204 133.457 174.396 144.836 165.482 154.695C156.82 164.276 146.154 172.407 134.02 178.499C122.346 184.36 109.324 188.334 95.4315 189.897L95.4033 189.9L95.404 189.907C95.2995 189.919 95.1958 189.926 95.0925 189.93C90.6003 190.345 86.3379 188.92 83.0483 186.256C79.7082 183.55 77.3837 179.561 76.8625 174.927L76.8591 174.897L76.8521 174.898C76.8406 174.794 76.8331 174.691 76.8296 174.589C76.4088 170.061 77.8096 165.758 80.4349 162.435C83.1275 159.027 87.1032 156.66 91.723 156.14C101.583 155.031 110.766 152.265 118.942 148.207C127.411 144.003 134.791 138.423 140.717 131.869C146.396 125.588 150.74 118.377 153.398 110.623C155.937 103.218 156.921 95.33 156.04 87.3036C155.16 79.2853 152.492 71.8155 148.414 65.1613C144.159 58.2193 138.358 52.1592 131.438 47.2815C124.219 42.1931 115.811 38.3853 106.657 36.1712C97.8129 34.0323 88.2539 33.378 78.3765 34.4893C71.4848 35.2645 65.0772 37.188 59.3813 40.0077C53.4868 42.9256 48.3633 46.7917 44.2634 51.3259C40.408 55.5896 37.4579 60.4787 35.6512 65.7292C33.9316 70.7266 33.2629 76.0392 33.8546 81.4327C34.4442 86.8054 36.2465 91.828 39.0053 96.3176C41.8979 101.025 45.835 105.134 50.5266 108.441C55.5311 111.969 61.3619 114.605 67.7099 116.134C73.8687 117.616 80.5432 118.066 87.4595 117.288C91.3847 116.846 95.0175 115.765 98.231 114.184C101.552 112.55 104.419 110.399 106.692 107.885C108.734 105.627 110.295 103.056 111.248 100.313L111.237 100.309C111.274 100.204 111.315 100.101 111.359 100C112.171 97.5246 112.478 94.9016 112.186 92.2374C111.883 89.4792 110.952 86.9003 109.526 84.5945C108.017 82.1547 105.938 80.0012 103.443 78.2427C100.682 76.2961 97.4245 74.8362 93.8428 73.9834C90.3464 73.1508 86.56 72.9004 82.6401 73.3412C81.6688 73.4504 80.7897 73.7014 80.0313 74.0618C79.3128 74.4033 78.7227 74.8294 78.2881 75.3098C78.0466 75.5769 77.8684 75.8524 77.769 76.1193C77.7187 76.2543 77.697 76.3837 77.7095 76.4989C77.7196 76.5908 77.768 76.7014 77.8466 76.8223C77.9918 77.0459 78.2233 77.2696 78.5218 77.48C79.0698 77.8663 79.7335 78.1549 80.4779 78.3215C81.2827 78.5016 82.1991 78.5478 83.1956 78.4359L83.1957 78.436Z" fill="#FFFFFE"/>
</g>
<defs>
<clipPath id="clip0_363:608">
<rect width="190" height="190" fill="white"/>
</clipPath>
</defs>
</svg>
